While wrestling with the pressures of life, love, and work in Manhattan, Carrie, Miranda,
and Charlotte join Samantha for a trip to Morocco, where Samantha's ex is filming a new movie
 
http://www.starshare.ro/bitbucket/Sex.And.The.City.2010.DvDRip.H264.Feel-Free.mp4_snapshot_00.14.15_%5B2010.10.07_12.25.50%5D.jpg
 
http://www.starshare.ro/bitbucket/Sex.And.The.City.2010.DvDRip.H264.Feel-Free.mp4_snapshot_00.35.33_%5B2010.10.07_12.27.38%5D.jpg
 
http://www.starshare.ro/bitbucket/Sex.And.The.City.2010.DvDRip.H264.Feel-Free.mp4_snapshot_00.43.22_%5B2010.10.07_12.25.55%5D.jpg
 
http://www.youtube.com/watch?v=ZpxvYs55N8o&feature=player_embedded

Genre:Comedy/Drama/Romance
Language:English
IMDb:http://www.imdb.com/title/tt1261945/
Source:DVDR-BOW


General
Complete name :Sex.And.The.City.2010.DvDRip.H264.Feel-Free
Format : MPEG-4
Format profile : Base Media
Codec ID : isom
File size : 1.14 GiB
Duration : 2h 26mn
Overall bit rate : 1 112 Kbps
Video #2
Codec ID : avc1
Codec ID/Info : Advanced Video Coding
Duration : 2h 26mn
Bit rate mode : Variable
Bit rate : 944 Kbps
Width : 720 pixels
Height : 384 pixels
Display aspect ratio : 1.875
Frame rate mode : Constant
Frame rate : 29.970 fps
Original frame rate : 29.000 fps
Resolution : 24 bits
Colorimetry : 4:2:0
Scan type : Progressive
Bits/(Pixel*Frame) : 0.114
Stream size : 989 MiB (85%)
Audio #1
ID : 1
Format : AAC
Format/Info : Advanced Audio Codec
Format version : Version 4
Format profile : LC
Format settings, SBR : No
Codec ID : 40
Duration : 2h 26mn
Bit rate mode : Constant
Bit rate : 160 Kbps
Channel(s) : 2 channels
Channel positions : L R
Sampling rate : 48.0 KHz
Resolution : 16 bits
Stream size : 168 MiB (14%)